<?xml version="1.0" encoding="UTF-8" standalone="no"?>
<!DOCTYPE svg PUBLIC "-//W3C//DTD SVG 1.1//EN" "http://www.w3.org/Graphics/SVG/1.1/DTD/svg11.dtd">
<svg width="100%" height="100%" viewBox="0 0 500 500" version="1.1" xmlns="http://www.w3.org/2000/svg" xmlns:xlink="http://www.w3.org/1999/xlink" xml:space="preserve" xmlns:serif="http://www.serif.com/" style="fill-rule:evenodd;clip-rule:evenodd;stroke-linejoin:round;stroke-miterlimit:2;">
    <g transform="matrix(43.075,0,0,43.075,22.0617,22.0617)">
        <path d="M6.585,2.501C6.56,2.501 6.535,2.505 6.511,2.513C6.508,2.513 6.506,2.514 6.503,2.515C6.39,2.547 6.311,2.651 6.311,2.769C6.311,2.832 6.333,2.892 6.374,2.94L6.606,3.501L4.568,3.501L4.375,3.034L4.641,3.034C4.784,3.031 4.9,2.912 4.9,2.769C4.9,2.626 4.784,2.508 4.641,2.505L3.467,2.505C3.458,2.504 3.449,2.504 3.44,2.505C3.303,2.515 3.195,2.631 3.195,2.769C3.195,2.914 3.315,3.034 3.46,3.034C3.463,3.034 3.465,3.034 3.467,3.034L3.803,3.034L4.093,3.734L3.278,4.903C3.039,4.772 2.767,4.698 2.477,4.698C1.55,4.698 0.793,5.461 0.793,6.391C0.793,7.322 1.55,8.083 2.477,8.083C3.313,8.083 4.008,7.463 4.136,6.659L5.481,6.659C5.575,6.659 5.662,6.609 5.709,6.528L6.963,4.363L7.211,4.962C6.741,5.264 6.426,5.792 6.426,6.391C6.426,7.322 7.181,8.083 8.108,8.083C9.035,8.083 9.79,7.322 9.79,6.391C9.79,5.461 9.035,4.698 8.108,4.698C7.966,4.698 7.829,4.717 7.697,4.751L7.248,3.667C7.248,3.667 7.247,3.666 7.247,3.665L6.985,3.034L7.764,3.034C7.907,3.031 8.023,2.912 8.023,2.769C8.023,2.626 7.907,2.508 7.764,2.505L6.633,2.505C6.617,2.502 6.601,2.501 6.585,2.501L6.585,2.501ZM4.788,4.03L6.546,4.03L5.521,5.8L4.788,4.03ZM4.334,4.317L5.086,6.131L4.137,6.131C4.083,5.786 3.926,5.474 3.696,5.23L4.334,4.317ZM2.477,5.228C2.655,5.228 2.821,5.271 2.971,5.343L2.342,6.245C2.312,6.289 2.296,6.341 2.296,6.394C2.296,6.539 2.415,6.658 2.559,6.659L3.596,6.659C3.477,7.174 3.024,7.554 2.477,7.554C1.838,7.554 1.323,7.037 1.323,6.391C1.323,5.745 1.838,5.228 2.477,5.228ZM8.108,5.228C8.747,5.228 9.261,5.745 9.261,6.391C9.261,7.037 8.747,7.554 8.108,7.554C7.469,7.554 6.956,7.037 6.956,6.391C6.956,6.009 7.138,5.674 7.418,5.463L7.846,6.497C7.887,6.596 7.984,6.661 8.091,6.661C8.237,6.661 8.357,6.541 8.357,6.395C8.357,6.36 8.35,6.326 8.337,6.294L7.903,5.248C7.97,5.236 8.038,5.228 8.108,5.228L8.108,5.228ZM3.384,5.678C3.485,5.81 3.561,5.962 3.599,6.131L3.067,6.131L3.384,5.678Z" style="fill:rgb(47,46,65);fill-rule:nonzero;"/>
    </g>
</svg>
