<?xml version="1.0" encoding="UTF-8" standalone="no"?>
<!DOCTYPE svg PUBLIC "-//W3C//DTD SVG 1.1//EN" "http://www.w3.org/Graphics/SVG/1.1/DTD/svg11.dtd">
<svg width="100%" height="100%" viewBox="0 0 500 500" version="1.1" xmlns="http://www.w3.org/2000/svg" xmlns:xlink="http://www.w3.org/1999/xlink" xml:space="preserve" xmlns:serif="http://www.serif.com/" style="fill-rule:evenodd;clip-rule:evenodd;stroke-linejoin:round;stroke-miterlimit:2;">
    <g transform="matrix(3.83035,0,0,3.83035,58.4631,58.4823)">
        <path d="M90.6,27.31C89.414,27.311 88.339,28.032 87.89,29.13C87,22.73 86.16,16.9 86,15.47C85.43,10.72 82.58,7.84 78.45,5.92C72,2.93 65.09,1.71 58.12,0.83C55.05,0.44 52,0.27 48.86,0L48.42,0C42.71,0.87 37,1.53 31.31,2.7C27.797,3.529 24.367,4.673 21.06,6.12C16.61,8 14.27,11.51 13.67,16.29C13.28,19.39 12.72,24.03 12.15,28.82C11.727,27.67 10.625,26.901 9.4,26.901C7.797,26.901 6.476,28.217 6.47,29.82L6.47,39.73C6.47,41.337 7.793,42.66 9.4,42.66C9.814,42.662 10.224,42.573 10.6,42.4C10.27,45.45 10.05,47.64 10.05,48.17L10.05,78.4C9.742,78.839 9.577,79.363 9.58,79.9L9.58,84.46C9.585,85.917 10.783,87.115 12.24,87.12L17,87.12L17,94.78C17.005,97.642 19.358,99.995 22.22,100L30.52,100C33.378,99.989 35.725,97.638 35.73,94.78L35.73,87.12L64.27,87.12L64.27,94.78C64.275,97.638 66.622,99.989 69.48,100L77.78,100C80.642,99.995 82.995,97.642 83,94.78L83,87.12L87.77,87.12C89.227,87.115 90.425,85.917 90.43,84.46L90.43,79.9C90.429,79.336 90.251,78.787 89.92,78.33C89.98,69.48 90.03,54.6 89.74,46.22C89.74,45.29 89.63,44.15 89.52,42.87C89.867,43.006 90.237,43.077 90.61,43.08C92.217,43.08 93.54,41.757 93.54,40.15L93.54,30.24C93.54,28.633 92.217,27.31 90.61,27.31C90.607,27.31 90.603,27.31 90.6,27.31ZM36,10.67L64,10.67C65.958,10.67 67.57,12.282 67.57,14.24C67.57,16.198 65.958,17.81 64,17.81L36,17.81C34.042,17.81 32.43,16.198 32.43,14.24C32.43,12.282 34.042,10.67 36,10.67ZM22.37,72.54C19.451,72.479 17.083,70.061 17.083,67.141C17.083,67.051 17.085,66.96 17.09,66.87C17.185,63.949 19.588,61.586 22.51,61.54C25.527,61.615 27.974,64.103 28,67.12C27.924,70.144 25.394,72.579 22.37,72.54ZM24.84,55C24.837,55 24.833,55 24.83,55C21.703,55 19.13,52.427 19.13,49.3C19.13,49.297 19.13,49.293 19.13,49.29L19.13,29.26C19.13,26.128 21.708,23.55 24.84,23.55L75.16,23.55C78.292,23.55 80.87,26.128 80.87,29.26L80.87,49.33C80.854,52.449 78.279,55.006 75.16,55L24.84,55ZM77.14,72.5C74.211,72.371 71.899,69.87 72,66.94C72,66.934 72,66.927 72,66.921C72,63.942 74.451,61.491 77.43,61.491C80.409,61.491 82.86,63.942 82.86,66.921C82.86,67.031 82.857,67.141 82.85,67.25C82.808,70.15 80.411,72.513 77.511,72.513C77.387,72.513 77.263,72.509 77.14,72.5Z" style="fill:rgb(47,46,65);fill-rule:nonzero;"/>
    </g>
</svg>
