<?xml version="1.0" encoding="UTF-8" standalone="no"?>
<!DOCTYPE svg PUBLIC "-//W3C//DTD SVG 1.1//EN" "http://www.w3.org/Graphics/SVG/1.1/DTD/svg11.dtd">
<svg width="100%" height="100%" viewBox="0 0 500 500" version="1.1" xmlns="http://www.w3.org/2000/svg" xmlns:xlink="http://www.w3.org/1999/xlink" xml:space="preserve" xmlns:serif="http://www.serif.com/" style="fill-rule:evenodd;clip-rule:evenodd;stroke-linejoin:round;stroke-miterlimit:2;">
    <g transform="matrix(0.458461,0,0,0.458461,73.192,121.172)">
        <path d="M127,199C143,165 158,129 177,90C187,72 200,55 221,53L550,53C572,55 584,72 595,90C614,129 629,165 645,199L127,199ZM221,0C186,0 164,13 135,54L86,164L11,164C0,164 -21,225 57,227L31,291C31,371 32,452 32,532C32,549 45,562 62,562L163,562C180,562 193,549 193,532L193,465L578,465L578,532C578,549 592,562 608,562L710,562C727,562 740,549 740,532C740,452 741,371 741,291L714,227C793,225 771,164 760,164L685,164L637,54C607,13 586,0 550,0L221,0ZM630,296C603,296 581,318 581,345C581,372 603,394 630,394C657,394 679,372 679,345C679,318 657,296 630,296ZM141,296C168,296 190,318 190,345C190,372 168,394 141,394C114,394 92,372 92,345C92,318 114,296 141,296Z" style="fill:rgb(47,46,65);"/>
    </g>
</svg>
