<?xml version="1.0" encoding="UTF-8" standalone="no"?>
<!DOCTYPE svg PUBLIC "-//W3C//DTD SVG 1.1//EN" "http://www.w3.org/Graphics/SVG/1.1/DTD/svg11.dtd">
<svg width="100%" height="100%" viewBox="0 0 500 500" version="1.1" xmlns="http://www.w3.org/2000/svg" xmlns:xlink="http://www.w3.org/1999/xlink" xml:space="preserve" xmlns:serif="http://www.serif.com/" style="fill-rule:evenodd;clip-rule:evenodd;stroke-linejoin:round;stroke-miterlimit:2;">
    <g transform="matrix(6.79071,0,0,6.79071,32.6974,32.6974)">
        <path d="M37.868,27C35.352,30.587 32.968,33.4 32.762,33.648C32.572,33.871 32.293,34 32,34C31.707,34 31.428,33.871 31.238,33.648C31.028,33.401 28.648,30.587 26.132,27L23.7,27L11.438,60L52.562,60L40.305,27L37.868,27ZM33,58L31,58L31,54L33,54L33,58ZM33,52L31,52L31,48L33,48L33,52ZM33,46L31,46L31,42L33,42L33,46ZM33,40L31,40L31,36L33,36L33,40Z" style="fill:rgb(47,46,65);fill-rule:nonzero;"/>
    </g>
    <g transform="matrix(6.79071,0,0,6.79071,32.6974,32.6974)">
        <circle cx="32" cy="14" r="6" style="fill:rgb(47,46,65);"/>
    </g>
    <g transform="matrix(6.79071,0,0,6.79071,32.6974,32.6974)">
        <path d="M42,14C42,8.514 37.486,4 32,4C26.514,4 22,8.514 22,14C22,18.325 28.63,27.32 32,31.438C35.37,27.319 42,18.323 42,14ZM24,14C24,9.611 27.611,6 32,6C36.389,6 40,9.611 40,14C40,18.389 36.389,22 32,22C27.613,21.995 24.005,18.387 24,14Z" style="fill:rgb(47,46,65);fill-rule:nonzero;"/>
    </g>
</svg>
