<?xml version="1.0" encoding="UTF-8" standalone="no"?>
<!DOCTYPE svg PUBLIC "-//W3C//DTD SVG 1.1//EN" "http://www.w3.org/Graphics/SVG/1.1/DTD/svg11.dtd">
<svg width="100%" height="100%" viewBox="0 0 500 500" version="1.1" xmlns="http://www.w3.org/2000/svg" xmlns:xlink="http://www.w3.org/1999/xlink" xml:space="preserve" xmlns:serif="http://www.serif.com/" style="fill-rule:evenodd;clip-rule:evenodd;stroke-linejoin:round;stroke-miterlimit:2;">
    <g transform="matrix(3.26879,0,0,3.26879,86.5586,86.5997)">
        <path d="M78.022,4.975L8.816,4.975C8.515,4.975 8.238,5.143 8.1,5.411C7.962,5.679 7.984,6.001 8.159,6.247L19.342,22.004L19.342,78.268C19.342,78.713 19.702,79.073 20.148,79.073L66.5,79.073C66.944,79.073 67.306,78.714 67.306,78.268L67.306,69.229L78.023,69.229C85.725,69.229 91.991,62.963 91.991,55.262L91.991,18.943C91.99,11.241 85.725,4.975 78.022,4.975ZM54.487,56.311C54.487,59.124 52.199,61.411 49.389,61.411L48.473,61.411C45.662,61.411 43.375,59.124 43.375,56.311L43.375,49.394L54.486,49.394L54.486,56.311L54.487,56.311ZM54.487,47.244L43.376,47.244L43.376,37.108L54.487,37.108L54.487,47.244ZM54.488,34.959L43.376,34.959L43.376,28.042C43.376,25.23 45.663,22.944 48.474,22.944L49.39,22.944C52.2,22.944 54.488,25.23 54.488,28.042L54.488,34.959ZM81.246,55.262C81.246,57.039 79.801,58.485 78.022,58.485L67.306,58.485L67.306,15.719L78.023,15.719C79.801,15.719 81.247,17.165 81.247,18.943L81.247,55.262L81.246,55.262Z" style="fill:rgb(47,46,65);fill-rule:nonzero;"/>
    </g>
    <g transform="matrix(3.26879,0,0,3.26879,86.5586,86.5997)">
        <path d="M66.5,83.91L20.147,83.91C19.702,83.91 19.341,84.269 19.341,84.715L19.341,94.194C19.341,94.639 19.702,95.001 20.147,95.001L66.5,95.001C66.944,95.001 67.306,94.64 67.306,94.194L67.306,84.715C67.306,84.27 66.944,83.91 66.5,83.91Z" style="fill:rgb(47,46,65);fill-rule:nonzero;"/>
    </g>
</svg>
