<svg xmlns="http://www.w3.org/2000/svg" xmlns:xlink="http://www.w3.org/1999/xlink" version="1.1" x="0px" y="0px" viewBox="0 0 100 125" enable-background="new 0 0 100 100" xml:space="preserve"><path d="M17.5,79.8l0,12.7h60V80l-2-27.5c6.6-0.3,12-5.8,12-12.5V7.5H72.3H70H16.5l5.9,17.8C22,30.9,17.5,79.5,17.5,79.8z   M22.5,87.5v-5h50v5H22.5z M82.5,12.5V40c0,4.1-3.3,7.4-7.3,7.5l-2.5-35H82.5z M67.7,12.5l4.6,65H22.7c1-11.1,4.8-52.3,4.8-52.3  l0-0.5l-4.1-12.2H67.7z"/><rect x="57.5" y="25" width="5" height="45"/><text x="0" y="115" fill="#000000" font-size="5px" font-weight="bold" font-family="'Helvetica Neue', Helvetica, Arial-Unicode, Arial, Sans-serif">Created by Arthur Shlain</text><text x="0" y="120" fill="#000000" font-size="5px" font-weight="bold" font-family="'Helvetica Neue', Helvetica, Arial-Unicode, Arial, Sans-serif">from the Noun Project</text></svg>