<?xml version="1.0" encoding="UTF-8" standalone="no"?>
<!DOCTYPE svg PUBLIC "-//W3C//DTD SVG 1.1//EN" "http://www.w3.org/Graphics/SVG/1.1/DTD/svg11.dtd">
<svg width="100%" height="100%" viewBox="0 0 500 500" version="1.1" xmlns="http://www.w3.org/2000/svg" xmlns:xlink="http://www.w3.org/1999/xlink" xml:space="preserve" xmlns:serif="http://www.serif.com/" style="fill-rule:evenodd;clip-rule:evenodd;stroke-linejoin:round;stroke-miterlimit:2;">
    <g transform="matrix(4.56649,0,0,4.56649,21.6733,-4327.27)">
        <path d="M81,965.362C77.881,965.313 74.129,967.234 71,970.362C65.879,974.971 60.848,980.139 56,985.362L16,977.362L13,983.362L43,998.362L26,1018.36C22.102,1017.08 16,1015.62 16,1020.36C16,1021.3 16.235,1022.26 17,1023.36L29,1035.36C30.098,1036.13 31.063,1036.36 32,1036.36C36.741,1036.36 35.282,1030.26 34,1026.36L54,1009.36L69,1039.36L75,1036.36L67,996.362C72.223,991.514 77.391,986.483 82,981.362C85.128,978.234 87.049,974.481 87,971.362C86.973,969.682 86.443,968.082 85.368,966.995C84.28,965.919 82.68,965.389 81,965.362Z" style="fill:rgb(47,46,65);fill-rule:nonzero;"/>
    </g>
</svg>
