<?xml version="1.0" encoding="UTF-8" standalone="no"?>
<!DOCTYPE svg PUBLIC "-//W3C//DTD SVG 1.1//EN" "http://www.w3.org/Graphics/SVG/1.1/DTD/svg11.dtd">
<svg width="100%" height="100%" viewBox="0 0 500 500" version="1.1" xmlns="http://www.w3.org/2000/svg" xmlns:xlink="http://www.w3.org/1999/xlink" xml:space="preserve" xmlns:serif="http://www.serif.com/" style="fill-rule:evenodd;clip-rule:evenodd;stroke-linejoin:round;stroke-miterlimit:2;">
    <g transform="matrix(1.85575,0,0,1.85575,-2092.01,-3425.59)">
        <g transform="matrix(1.91118,0,0,1.91118,1166.47,1881.27)">
            <path d="M39,14L61,14C62.1,14 62.823,13.118 62.607,12.039L61.392,5.961C61.177,4.882 60.1,4 59,4L41,4C39.9,4 38.824,4.882 38.608,5.961L37.392,12.039C37.176,13.118 37.9,14 39,14Z" style="fill:rgb(47,46,65);fill-rule:nonzero;"/>
        </g>
        <g transform="matrix(1.91118,0,0,1.91118,1166.47,1881.27)">
            <path d="M100,45.5C100,42.475 97.525,40 94.5,40L87.923,40L83.154,27.6C81.969,24.52 78.404,21.258 75.23,20.351C75.23,20.352 67,18 50,18C33,18 24.769,20.352 24.769,20.352C21.596,21.259 18.031,24.52 16.846,27.601L12.077,40L5.5,40C2.475,40 0,42.475 0,45.5C0,48.525 2.475,51 5.5,51L7.846,51L6.154,55.4C4.969,58.479 4,63.7 4,67L4,93C4,96.85 7.15,100 11,100C14.85,100 18,96.85 18,93L18,89L82,89L82,93C82,96.85 85.15,100 89,100C92.85,100 96,96.85 96,93L96,67C96,63.7 95.03,58.479 93.846,55.4L92.153,51L94.5,51C97.525,51 100,48.525 100,45.5ZM17.691,47.124L23.308,31.877C23.689,30.845 24.9,30 26,30L74,30C75.1,30 76.312,30.845 76.691,31.876L82.308,47.123C82.688,48.155 82.1,49 81,49L19,49C17.9,49 17.311,48.155 17.691,47.124ZM17.5,72C14.463,72 12,69.535 12,66.5C12,63.465 14.463,61 17.5,61C20.537,61 23,63.465 23,66.5C23,69.535 20.537,72 17.5,72ZM82.5,72C79.462,72 77,69.538 77,66.5C77,63.462 79.462,61 82.5,61C85.538,61 88,63.462 88,66.5C88,69.538 85.538,72 82.5,72Z" style="fill:rgb(47,46,65);fill-rule:nonzero;"/>
        </g>
    </g>
</svg>
