<?xml version="1.0" encoding="UTF-8" standalone="no"?>
<!DOCTYPE svg PUBLIC "-//W3C//DTD SVG 1.1//EN" "http://www.w3.org/Graphics/SVG/1.1/DTD/svg11.dtd">
<svg width="100%" height="100%" viewBox="0 0 500 500" version="1.1" xmlns="http://www.w3.org/2000/svg" xmlns:xlink="http://www.w3.org/1999/xlink" xml:space="preserve" xmlns:serif="http://www.serif.com/" style="fill-rule:evenodd;clip-rule:evenodd;stroke-linejoin:round;stroke-miterlimit:2;">
    <g transform="matrix(1.57267,0,0,1.57267,-160.94,-137.664)">
        <path d="M348.1,362.8L334.9,347.8L318.1,347.8L315.3,343.4L331,343.4L317.8,328.4L305.7,328.4L300.6,320.4L329.5,320.4C340.1,320.4 348.6,311.5 348,300.9L341.1,164.8C340.5,153.7 331.4,145.1 320.3,145.1L313.1,145.1L313.1,144.2C313.1,129.6 301.2,117.7 286.6,117.7L236,117.7C221.4,117.7 209.5,129.6 209.5,144.2L209.5,145.1L202.3,145.1C191.2,145.1 182.1,153.8 181.5,164.8L174.6,300.9C174.1,311.5 182.5,320.4 193.1,320.4L220.9,320.4L215.7,328.4L204.7,328.4L191.5,343.4L205.9,343.4L203.1,347.8L187.7,347.8L174.5,362.8L193.4,362.8L185.3,375.3L203.2,375.3L211.3,362.8L309.7,362.8L317.7,375.3L335.5,375.3L327.5,362.8L348.1,362.8ZM225.9,273.5L225.9,258.5L296.9,258.5L296.9,273.5L225.9,273.5ZM321.5,283.9C321.5,289.7 316.8,294.5 310.9,294.5C305,294.5 300.3,289.8 300.3,283.9C300.3,278.1 305,273.3 310.9,273.3C316.8,273.3 321.5,278.1 321.5,283.9ZM224.7,144.2C224.7,137.9 229.8,132.7 236.2,132.7L286.8,132.7C293.1,132.7 298.3,137.8 298.3,144.2L298.3,145.1L224.8,145.1L224.8,144.2L224.7,144.2ZM206,166.7L316.8,166.7L318.6,223.7L204.3,223.7L206,166.7ZM210.5,294.5C204.7,294.5 199.9,289.8 199.9,283.9C199.9,278.1 204.6,273.3 210.5,273.3C216.4,273.3 221.1,278 221.1,283.9C221.1,289.8 216.4,294.5 210.5,294.5ZM283,320.3L288.1,328.3L233.8,328.3L239,320.3L283,320.3ZM221.2,347.8L224,343.4L297.6,343.4L300.4,347.8L221.2,347.8Z" style="fill:rgb(47,46,65);fill-rule:nonzero;"/>
    </g>
</svg>
