<?xml version="1.0" encoding="UTF-8" standalone="no"?>
<!DOCTYPE svg PUBLIC "-//W3C//DTD SVG 1.1//EN" "http://www.w3.org/Graphics/SVG/1.1/DTD/svg11.dtd">
<svg width="100%" height="100%" viewBox="0 0 500 500" version="1.1" xmlns="http://www.w3.org/2000/svg" xmlns:xlink="http://www.w3.org/1999/xlink" xml:space="preserve" xmlns:serif="http://www.serif.com/" style="fill-rule:evenodd;clip-rule:evenodd;stroke-linejoin:round;stroke-miterlimit:2;">
    <g transform="matrix(0.788596,0,0,0.788596,99.7725,78.8323)">
        <path d="M153,318C159,357 155,395 143,434L220,434C212,403 206,373 204,343C204,332 209,322 219,316C228,310 236,302 243,293C252,299 264,304 276,304C305,304 329,280 329,250C329,239 326,229 321,221C329,213 335,203 338,191C362,186 381,164 381,138C381,115 366,95 345,88C357,47 317,8 276,23C263,5 240,-3 219,3C195,-5 168,4 155,25C123,15 88,36 85,71C52,71 27,99 32,132C13,140 0,159 0,181C0,202 12,220 30,229C26,260 51,288 83,288C96,288 108,283 117,276C124,285 133,293 141,299C148,304 151,310 153,318ZM224,262C212,264 200,261 190,256C189,256 188,257 187,258C192,271 195,284 197,297C198,300 200,301 203,301C216,297 225,290 232,281C228,275 225,269 224,262ZM169,263C156,265 143,262 132,255C131,258 130,261 128,263C140,272 154,279 168,284C171,285 174,282 173,279C172,273 171,268 169,263Z" style="fill:rgb(47,46,65);"/>
    </g>
</svg>
